# xmcd CD database file
#
# Track frame offsets:
#	182
#	15950
#	32282
#
# Disc length: 651 seconds
#
# Revision: 0
# Processed by: cddbd v1.5.1PL0 Copyright (c) Steve Scherf et al.
# Submitted via: CDex 1.40Release
#
DISCID=0e028903
DTITLE=Shania Twain - When
DYEAR=1998
DGENRE=Country
TTITLE0=When (International Radio Edit)
TTITLE1=Don't Be Stupid (You Know I Love You) (International LP Version)
TTITLE2=That Don't Impress Me Much (International LP Version)
EXTD=YEAR: 1998 ID3G: 2
EXTT0=
EXTT1=
EXTT2=
PLAYORDER=
